<?xml version="1.0" standalone="no"?>
<!DOCTYPE svg PUBLIC "-//W3C//DTD SVG 20010904//EN"
 "http://www.w3.org/TR/2001/REC-SVG-20010904/DTD/svg10.dtd">
<svg version="1.0" xmlns="http://www.w3.org/2000/svg"
 width="463.000000pt" height="463.000000pt" viewBox="0 0 463.000000 463.000000"
 preserveAspectRatio="xMidYMid meet">
<metadata>
Created by potrace 1.14, written by Peter Selinger 2001-2017
</metadata>
<g transform="translate(0.000000,463.000000) scale(0.100000,-0.100000)"
fill="#000000" stroke="none">
<path d="M2315 3846 c-17 -7 -37 -21 -45 -32 -12 -14 -9 -14 14 4 41 31 89 29
116 -5 21 -27 22 -34 18 -296 -1 -147 -1 -266 2 -264 3 2 27 13 54 25 84 38
189 125 129 106 -16 -5 -16 -4 1 10 10 8 16 22 13 31 -5 11 0 15 16 15 12 0
18 -4 12 -8 -5 -4 -11 -14 -13 -22 -1 -8 11 0 28 19 40 45 84 191 62 205 -6 4
-8 -3 -4 -16 4 -16 2 -19 -8 -13 -9 5 -11 4 -6 -3 10 -17 -4 -83 -16 -76 -6 4
-8 -1 -4 -14 6 -17 3 -19 -14 -15 -11 3 -20 14 -20 25 0 10 -4 16 -10 13 -6
-4 -10 7 -10 24 0 22 -5 31 -16 31 -22 0 -44 25 -44 49 0 15 -10 23 -40 31
-37 10 -40 13 -40 47 0 22 -7 42 -19 52 -10 9 -21 26 -25 39 -4 13 -13 21 -19
19 -7 -2 -19 1 -27 8 -25 21 -53 25 -85 11z m122 -58 c-3 -8 -6 -5 -6 6 -1 11
2 17 5 13 3 -3 4 -12 1 -19z m227 -323 c3 -8 1 -15 -4 -15 -6 0 -10 7 -10 15
0 8 2 15 4 15 2 0 6 -7 10 -15z"/>
<path d="M2761 3819 c-30 -29 -31 -34 -29 -107 l2 -77 3 75 c4 79 21 112 64
123 29 8 77 -38 90 -86 14 -53 5 -177 -20 -256 -28 -91 -62 -140 -155 -229
-87 -82 -191 -144 -262 -158 l-34 -6 0 -132 c0 -140 -5 -159 -48 -169 -34 -8
-90 11 -97 33 -4 11 -8 77 -10 148 l-4 127 -51 12 c-73 16 -106 31 -184 81
-77 51 -133 116 -182 213 -37 75 -52 129 -64 234 l-7 70 -2 -78 c-1 -52 -6
-83 -15 -92 -7 -8 -16 -11 -20 -8 -3 4 -6 1 -6 -5 0 -15 13 -15 26 -2 7 7 11
5 11 -7 0 -10 -8 -25 -19 -34 -10 -9 -18 -24 -18 -33 0 -9 -4 -16 -10 -16 -5
0 -10 9 -10 20 0 17 -7 20 -41 20 -28 0 -46 -6 -55 -17 -12 -16 -13 -15 -14
10 0 43 -17 31 -27 -20 l-10 -48 -7 67 c-5 36 -4 72 0 80 21 32 15 60 -20 93
-42 39 -71 37 -113 -8 l-28 -31 33 27 c41 33 63 34 97 5 25 -23 25 -24 17
-113 -13 -135 0 -241 37 -321 74 -158 169 -253 344 -345 56 -29 118 -63 137
-76 71 -47 157 -144 219 -248 34 -58 64 -105 67 -105 3 0 16 25 29 55 14 30
36 73 50 95 14 23 23 46 19 52 -4 7 -3 8 4 4 11 -7 17 6 13 27 -1 5 3 6 8 2 6
-3 18 6 27 19 20 32 130 114 209 156 143 77 216 124 247 158 18 20 37 37 40
37 4 0 22 23 39 50 17 28 35 52 39 55 5 3 24 41 43 85 57 128 71 244 41 331
-19 57 -9 87 34 102 39 13 69 -2 96 -48 18 -30 21 -52 21 -150 0 -63 -3 -129
-7 -146 l-7 -32 70 25 c122 42 274 35 329 -17 39 -36 39 -70 2 -102 -28 -23
-32 -24 -101 -14 -80 11 -150 1 -249 -36 -49 -19 -77 -42 -202 -168 -100 -100
-162 -154 -200 -174 -148 -77 -293 -172 -333 -217 -62 -71 -115 -165 -138
-244 -11 -38 -29 -89 -39 -112 -32 -70 -103 -91 -153 -45 -10 8 -27 47 -39 86
-11 39 -39 109 -61 156 -52 109 -164 224 -280 288 -201 110 -233 130 -277 169
-25 23 -75 85 -109 137 l-63 95 -82 33 c-70 28 -93 32 -171 32 -49 0 -111 -4
-136 -8 -42 -8 -47 -6 -67 19 -14 17 -22 22 -22 13 0 -8 13 -28 28 -44 15 -16
34 -44 41 -61 7 -18 24 -45 36 -59 l23 -27 -21 -19 c-19 -16 -18 -16 13 2 39
22 65 26 76 9 4 -8 -1 -9 -17 -4 -19 5 -17 2 8 -14 36 -22 50 -47 88 -147 37
-99 64 -140 143 -219 90 -89 139 -119 358 -213 203 -88 263 -124 358 -217 57
-57 75 -85 136 -208 38 -79 81 -174 94 -213 27 -78 25 -81 51 71 17 95 67 210
129 290 80 106 204 183 481 300 72 30 153 71 180 90 93 63 153 132 140 158 -4
7 0 4 8 -6 14 -17 17 -15 41 25 35 60 78 150 72 155 -2 2 -11 -15 -21 -39 -9
-24 -28 -56 -42 -73 -14 -16 -22 -23 -18 -15 5 8 15 23 22 32 10 11 12 22 5
33 -15 28 -3 59 39 100 38 37 39 37 29 10 -6 -15 -9 -29 -7 -32 2 -2 12 17 21
41 20 52 66 96 101 96 12 0 33 -9 46 -19 23 -18 23 -21 12 -86 -7 -43 -23 -86
-43 -118 -24 -38 -27 -48 -13 -42 57 24 139 38 218 39 99 1 135 -11 168 -56
18 -24 18 -30 7 -58 -19 -46 -52 -65 -82 -48 -16 9 -60 13 -143 12 -173 -3
-221 -21 -340 -128 -105 -95 -202 -156 -260 -164 -40 -5 -40 -5 33 -23 41 -10
117 -37 170 -60 l97 -41 112 4 c95 5 121 9 167 32 54 27 103 74 141 138 27 44
70 50 105 13 26 -28 31 -84 10 -110 -6 -8 -9 -19 -5 -25 4 -6 3 -9 -2 -8 -5 2
-34 -22 -65 -53 -33 -34 -84 -70 -122 -89 -57 -28 -76 -33 -151 -34 -47 0 -84
-3 -82 -6 10 -19 48 -81 82 -133 46 -71 89 -99 185 -121 98 -23 131 -80 73
-126 -24 -19 -37 -22 -99 -18 -125 8 -228 87 -312 240 -22 41 -63 95 -93 124
-145 136 -423 195 -581 122 -106 -49 -230 -202 -266 -328 -5 -19 -13 -43 -17
-53 -6 -15 -1 -14 30 7 48 33 152 65 230 73 138 12 279 -45 435 -178 119 -100
228 -174 292 -195 38 -12 65 -14 116 -8 83 9 93 8 115 -18 28 -33 18 -68 -31
-105 -39 -30 -50 -33 -112 -33 -82 0 -163 24 -245 73 -33 19 -61 34 -62 33 -1
-1 9 -38 23 -81 23 -71 25 -94 22 -200 -3 -106 -6 -127 -28 -169 -14 -26 -37
-55 -51 -63 -24 -15 -29 -14 -65 3 -48 23 -52 42 -25 122 58 173 -11 454 -144
587 -54 54 -138 88 -221 88 -81 0 -124 -15 -216 -75 -60 -39 -86 -63 -117
-112 -38 -58 -41 -67 -41 -132 l0 -69 74 -1 c41 -1 97 -9 125 -19 28 -9 55
-14 61 -10 6 4 9 1 8 -7 -2 -7 5 -12 14 -12 10 1 15 -2 13 -7 -6 -9 29 -31 39
-24 3 3 4 2 1 -1 -2 -4 16 -30 40 -59 24 -28 59 -83 77 -121 29 -61 33 -80 36
-174 4 -104 3 -105 -27 -147 -43 -60 -74 -65 -118 -21 l-35 35 17 61 c11 39
16 82 13 117 -10 125 -152 246 -299 256 l-44 4 0 -252 0 -251 -32 -31 c-39
-37 -53 -38 -81 -9 -38 41 -42 72 -42 309 l0 229 -55 0 c-77 0 -155 -32 -219
-91 -54 -49 -54 -49 -66 -133 -12 -83 -6 -126 26 -210 7 -19 -45 -66 -74 -66
-79 0 -151 218 -109 332 8 24 19 61 23 83 6 36 8 37 13 15 7 -24 7 -24 20 8
40 95 264 212 407 212 l34 0 0 51 c0 85 -19 128 -82 190 -126 124 -300 163
-426 94 -64 -35 -142 -112 -176 -175 -66 -120 -83 -295 -44 -451 20 -82 21
-89 5 -113 -36 -54 -101 -38 -136 33 -60 119 -65 365 -9 443 l23 33 -25 -18
c-48 -33 -136 -75 -194 -92 -147 -43 -284 26 -235 117 7 13 7 18 1 14 -6 -3
-13 -2 -16 2 -3 5 47 10 111 11 74 1 128 7 151 16 62 26 154 87 257 170 155
126 211 159 310 185 97 25 254 4 344 -46 24 -13 45 -24 47 -24 2 0 -9 36 -25
79 -50 138 -157 267 -258 314 -39 17 -66 21 -148 21 -113 0 -193 -18 -298 -66
-82 -38 -165 -121 -228 -230 -53 -91 -87 -128 -164 -178 -76 -49 -169 -69
-230 -48 -36 12 -40 17 -43 50 -4 50 27 81 99 98 74 17 133 52 159 97 12 20
15 31 7 25 -7 -7 -18 -8 -22 -4 -5 4 -5 1 -1 -6 9 -15 -12 -44 -25 -36 -5 3
-8 0 -7 -8 2 -7 -3 -12 -9 -11 -7 2 -27 -5 -45 -15 -18 -10 -52 -24 -76 -32
-55 -18 -92 -60 -92 -107 0 -35 32 -93 51 -93 14 0 39 -26 39 -39 0 -6 7 -11
15 -11 8 0 15 -9 15 -20 0 -13 7 -20 19 -20 14 0 21 -10 26 -37 4 -21 11 -41
16 -44 6 -3 6 -16 -1 -33 -7 -20 -7 -33 2 -49 7 -12 11 -27 10 -34 -1 -6 7
-14 18 -18 11 -4 20 -15 20 -26 0 -16 5 -19 23 -14 16 5 18 4 8 -4 -12 -8 -10
-12 12 -22 15 -7 27 -18 27 -25 0 -7 10 -22 22 -34 12 -11 18 -20 13 -20 -5 0
2 -11 14 -24 14 -15 30 -22 42 -19 14 4 19 0 19 -16 0 -14 6 -21 20 -21 11 0
20 -4 20 -10 0 -5 9 -10 20 -10 13 0 20 -7 20 -20 0 -13 7 -20 20 -20 13 0 20
-7 20 -20 0 -11 7 -20 15 -20 13 0 42 -72 37 -92 -1 -5 2 -8 7 -8 5 0 13 -9
16 -20 4 -11 15 -20 27 -20 18 0 20 -4 14 -32 -4 -24 -3 -29 4 -18 6 9 10 10
10 3 0 -6 8 -19 17 -29 13 -13 14 -19 5 -22 -14 -4 -16 -42 -2 -42 6 0 10 -9
10 -20 0 -13 7 -20 20 -20 13 0 20 -7 20 -20 0 -13 7 -20 20 -20 13 0 20 -7
20 -20 0 -13 7 -20 20 -20 13 0 20 -7 20 -20 0 -18 7 -20 60 -20 65 0 74 -10
39 -41 -19 -16 -20 -20 -6 -34 18 -17 37 -20 37 -5 0 6 -7 10 -15 10 -8 0 -15
4 -15 9 0 11 35 21 73 21 l27 0 0 -80 c0 -73 2 -80 20 -80 17 0 20 -7 20 -40
0 -33 -3 -40 -20 -40 -18 0 -20 -7 -20 -80 l0 -80 -80 0 -80 0 0 -60 0 -60 80
0 80 0 0 60 0 60 80 0 80 0 0 -60 0 -60 1350 0 1350 0 0 1020 0 1020 -70 0
-70 0 0 100 0 100 -40 0 -40 0 0 40 c0 33 -3 40 -20 40 -13 0 -20 7 -20 20 0
19 -7 20 -120 20 -113 0 -120 1 -120 20 0 13 -7 20 -20 20 -17 0 -20 7 -20 40
0 22 -4 40 -10 40 -5 0 -10 9 -10 20 0 11 5 20 10 20 6 0 10 47 10 120 0 81
-4 120 -11 120 -7 0 -10 -15 -7 -40 2 -25 0 -39 -7 -37 -5 2 -11 29 -13 61
l-3 57 -102 -2 c-97 -1 -179 10 -195 26 -4 4 3 4 16 1 12 -4 22 -3 22 2 0 16
48 33 54 19 2 -7 5 -2 5 11 1 16 -5 22 -19 22 -17 0 -20 7 -22 58 -1 40 -2 46
-5 21 -4 -35 -6 -37 -39 -37 -27 0 -34 4 -34 19 0 12 7 19 20 19 11 0 20 -7
20 -16 0 -8 5 -12 10 -9 6 3 10 19 10 36 0 16 -4 29 -10 29 -5 0 -10 18 -10
40 0 22 5 40 10 40 6 0 10 25 10 55 0 48 -2 55 -20 55 -11 0 -20 5 -20 11 0 5
-4 7 -10 4 -13 -8 -13 1 3 26 10 17 10 23 0 26 -7 3 -13 9 -13 14 0 20 -56 59
-93 65 -27 5 -34 9 -25 15 8 6 0 6 -20 3 -23 -5 -38 -2 -50 9 -9 9 -29 20 -45
26 -20 8 -27 17 -27 36 0 21 -4 25 -18 21 -22 -7 -82 29 -82 49 0 24 -15 17
-27 -12 -10 -26 -11 -24 -12 25 -1 29 -5 60 -10 70 -5 9 -15 30 -22 46 -8 16
-22 31 -31 34 -10 2 -18 8 -18 13 0 5 -14 9 -31 9 -37 0 -99 -56 -99 -89 0
-24 -10 -27 -28 -9 -9 9 -12 9 -12 0 0 -7 -14 -12 -35 -12 -19 0 -35 5 -35 10
0 18 -39 10 -45 -9 -3 -11 -12 -18 -19 -15 -8 3 -17 -8 -23 -28 -8 -30 -9 -27
-9 29 1 35 4 63 7 63 11 0 -11 141 -27 169 -18 30 -62 61 -87 61 -9 0 -29 -14
-46 -31z m-1031 -459 c0 -39 1 -40 37 -40 20 0 44 -7 53 -15 14 -13 16 -12 18
11 1 14 -4 27 -13 30 -8 4 -15 16 -14 28 l0 21 9 -22 c5 -12 18 -27 29 -33 23
-12 28 -36 10 -42 -7 -2 -12 -31 -12 -71 -1 -58 -3 -67 -19 -67 -10 0 -18 5
-18 10 0 6 -9 10 -20 10 -11 0 -20 -4 -20 -10 0 -5 -4 -10 -10 -10 -5 0 -10 7
-10 15 0 8 -4 15 -10 15 -5 0 -10 9 -10 21 0 12 -8 23 -20 26 -11 3 -20 14
-20 24 0 12 -7 19 -20 19 -13 0 -20 7 -20 20 0 13 7 20 20 20 17 0 20 7 20 40
0 33 3 40 20 40 17 0 20 -7 20 -40z m1417 -7 c-3 -10 -5 -4 -5 12 0 17 2 24 5
18 2 -7 2 -21 0 -30z m-44 -130 c-14 -32 -32 -63 -39 -69 -8 -6 -14 -14 -14
-17 0 -4 -13 -28 -30 -54 -16 -26 -30 -43 -30 -39 0 5 -7 2 -17 -5 -15 -13
-15 -12 -4 9 7 12 16 20 22 17 5 -4 9 1 9 9 0 10 -6 13 -15 10 -9 -4 -15 0
-15 10 0 22 39 88 61 104 11 7 19 20 19 28 0 8 5 14 10 14 16 0 12 -22 -7 -36
-17 -12 -16 -13 4 -11 22 1 38 32 22 43 -17 10 -9 26 10 21 12 -3 22 1 25 9 3
8 8 14 10 14 3 0 -7 -26 -21 -57z m-1900 -236 c7 3 9 3 5 -2 -4 -4 2 -20 12
-36 13 -17 16 -30 10 -34 -5 -3 -10 1 -10 9 0 9 -11 26 -25 38 -13 11 -21 26
-18 32 4 7 8 6 11 -2 2 -7 9 -9 15 -5z m392 -107 c10 -11 16 -20 13 -20 -3 0
-13 9 -23 20 -10 11 -16 20 -13 20 3 0 13 -9 23 -20z m1753 -195 c-3 -3 -9 2
-12 12 -6 14 -5 15 5 6 7 -7 10 -15 7 -18z m660 -330 c0 -32 -7 -27 -14 10 -2
14 -1 24 4 21 5 -3 10 -17 10 -31z m-187 -8 c-10 -9 -11 -8 -5 6 3 10 9 15 12
12 3 -3 0 -11 -7 -18z m669 -427 l0 -40 -40 0 -40 0 0 40 0 40 40 0 40 0 0
-40z m-140 -60 c0 -5 -18 -10 -40 -10 -22 0 -40 5 -40 10 0 6 18 10 40 10 22
0 40 -4 40 -10z m-427 -61 c6 -24 1 -24 -25 1 -12 11 -31 20 -42 21 -21 0 -21
1 -1 8 26 10 62 -6 68 -30z m-2065 -425 c5 -8 15 -16 23 -17 8 -2 25 -13 37
-25 12 -12 33 -22 46 -22 40 0 39 -17 0 -30 -20 -7 -54 -28 -75 -47 -33 -30
-44 -34 -72 -29 -72 14 -93 52 -63 119 8 18 16 40 20 50 7 22 71 24 84 1z
m-487 -457 c-10 -9 -11 -8 -5 6 3 10 9 15 12 12 3 -3 0 -11 -7 -18z"/>
<path d="M1846 3832 c-3 -5 8 -7 23 -4 21 3 35 -3 55 -23 26 -26 27 -30 21
-99 -8 -84 6 -170 37 -235 34 -69 125 -155 193 -180 92 -35 85 -55 83 242 -1
144 -4 207 -5 140 l-4 -123 -43 0 c-54 0 -76 8 -76 26 0 7 -18 18 -40 24 -37
10 -80 43 -80 62 0 4 -7 5 -15 2 -11 -5 -15 2 -17 27 -1 27 -3 24 -8 -16 -6
-46 -7 -43 -8 31 -2 99 -22 134 -77 134 -19 0 -36 -4 -39 -8z"/>
<path d="M1371 3505 c-3 -77 -14 -144 -22 -139 -5 3 -9 -1 -9 -10 0 -12 -17
-13 -107 -9 -144 7 -185 -1 -228 -41 -19 -18 -35 -40 -35 -47 0 -8 9 -1 20 15
10 17 30 36 44 43 64 34 224 24 325 -19 24 -10 45 -17 47 -15 2 2 -1 19 -7 38
-6 19 -14 77 -18 129 -5 52 -9 77 -10 55z"/>
<path d="M1030 2901 c-13 -9 -40 -31 -58 -48 -19 -18 -39 -33 -45 -33 -30 0
-98 -34 -93 -47 4 -9 -4 -13 -25 -13 -17 0 -28 -4 -25 -9 4 -5 0 -12 -6 -15
-7 -3 -2 -2 12 2 14 4 95 7 181 6 l157 -1 -30 71 c-16 39 -33 78 -36 87 -7 15
-9 15 -32 0z"/>
<path d="M4005 2834 c11 -11 24 -14 42 -9 21 5 24 8 12 16 -7 5 -27 9 -42 9
-26 0 -27 -1 -12 -16z"/>
<path d="M3940 2825 c0 -8 7 -15 15 -15 8 0 15 7 15 15 0 8 -7 15 -15 15 -8 0
-15 -7 -15 -15z"/>
<path d="M720 2699 c-16 -30 -8 -31 13 -3 10 13 13 24 8 24 -6 0 -15 -9 -21
-21z"/>
<path d="M710 2631 c0 -4 11 -18 24 -30 21 -20 32 -22 73 -17 26 3 75 8 108
12 59 5 59 5 31 -10 -15 -9 -34 -16 -42 -16 -8 0 -11 -6 -8 -15 4 -8 12 -15
20 -15 20 0 17 -28 -3 -33 -17 -4 -17 -5 0 -6 30 -2 18 -21 -13 -21 -18 0 -30
-5 -30 -13 0 -18 -57 -50 -65 -37 -13 21 -73 11 -100 -17 -34 -37 -33 -83 3
-136 16 -23 35 -62 42 -87 12 -42 60 -97 60 -69 0 8 4 8 15 -1 8 -7 15 -19 15
-26 0 -8 9 -14 20 -14 17 0 20 -7 20 -40 0 -22 5 -40 10 -40 6 0 10 -9 10 -20
0 -15 7 -20 25 -20 18 0 25 5 25 20 0 13 7 20 19 20 10 0 21 7 25 15 3 9 0 15
-9 15 -23 0 -18 18 7 26 23 7 108 8 115 0 3 -2 -1 -15 -7 -28 -11 -22 -11 -22
9 2 11 14 21 28 21 32 0 4 -21 10 -47 13 -103 13 -147 29 -218 76 -81 55 -140
115 -161 165 -20 47 -18 67 9 92 27 25 64 28 92 8 11 -7 25 -15 30 -16 6 -1
12 -4 15 -7 3 -4 -1 -3 -7 1 -29 16 -10 -17 42 -72 73 -79 128 -102 254 -109
80 -4 105 -2 151 15 194 72 254 92 273 93 20 1 20 1 -3 8 -71 22 -206 108
-285 181 -42 40 -63 51 -135 70 -92 25 -232 32 -327 16 -48 -8 -53 -7 -77 17
-14 15 -26 23 -26 18z"/>
</g>
</svg>
