<svg xmlns="http://www.w3.org/2000/svg" height="1200" width="1600" version="1.1" xmlns:xlink="http://www.w3.org/1999/xlink" xmlns:svgjs="http://svgjs.com/svgjs"><rect fill="#effaff" width="1600" height="1200"></rect><g><path d="M1404.94 280.24C1400.51 260.1 1386.61 241.75 1367.67 231.25 1349.74 221.42 1330 219.81 1309.85 220 1259.79 220.38 1209.73 220.95 1159.67 221.99 956.7 225.77 753.43 233.62 550.86 247.23 501 250.64 450.93 254.33 401.07 258.3 375.99 260.28 351.21 262.46 326.13 264.63 291.38 267.75 247.66 265.2 221.37 289.69 194.88 314.18 198 349.93 199.72 381.89 201.03 404.97 203.54 427.94 206.67 450.64 213.62 499.43 222.88 548.04 231.95 596.36 235.58 615.08 238.7 634.09 241.62 652.81 247.06 694.52 248.57 735.93 250.28 777.83 252.4 828.61 259.95 876.93 283.12 923.17 286.24 929.69 292.19 935.65 299.14 940.38 301.25 945.3 304.17 950.21 308.2 955.04 320.59 970.26 338.72 978.96 359.37 979.15 563.05 980.76 766.42 980.1 970.09 977.16 1021.26 976.41 1072.13 975.56 1123.2 974.61 1148.49 974.04 1173.47 973.67 1198.75 973 1233.7 972.25 1273.69 975.75 1300.39 950.12 1323.55 927.8 1324.76 892.25 1330.3 863.03 1334.53 839.95 1338.76 816.79 1342.69 793.71 1350.65 746.9 1358.31 699.91 1365.16 652.91 1379.66 554.75 1392.25 456.41 1402.43 357.87 1404.74 332.72 1410.68 305.67 1404.94 280.24Z" fill="#deeff7" opacity="1" stroke-width="2" stroke="none"></path></g><g><path d="M1025.84 141.48H744.77V391.37H1025.84V141.48Z" fill="#78c7e0" stroke="#333333" stroke-width="2" stroke-linecap="round" stroke-linejoin="round" opacity="1"></path><path d="M1025.84 141.48H744.77V391.37H1025.84V141.48Z" stroke="#333333" stroke-width="2" stroke-linecap="round" stroke-linejoin="round" opacity="1" fill="none"></path></g><g><path d="M1320.92 315.51H1059.71V611.12H1320.92V315.51Z" fill="#78c7e0" stroke="#333333" stroke-width="2" stroke-linecap="round" stroke-linejoin="round" opacity="1"></path><path d="M1320.92 315.51H1059.71V611.12H1320.92V315.51Z" stroke="#333333" stroke-width="2" stroke-linecap="round" stroke-linejoin="round" opacity="1" fill="none"></path></g><g><path d="M689.2 1068.97H343.78C321.21 1068.97 302.92 1050.68 302.92 1028.11V938.87C302.92 938.74 320.82 786.46 320.82 657.66 320.82 561.41 302.92 400.7 302.92 400.7V356.73C302.92 334.16 321.21 315.87 343.78 315.87H689.2C711.77 315.87 730.06 334.16 730.06 356.73V400.7C729.41 403.17 702.43 526.13 702.43 657.92 702.43 754.42 730.06 938.87 730.06 938.87V1028.11C730.06 1050.55 711.77 1068.97 689.2 1068.97Z" fill="#46cdcf" stroke="#333333" stroke-width="2" stroke-linecap="round" stroke-linejoin="round" opacity="1"></path><path d="M730.06 400.7H302.92V938.87H730.06V400.7Z" fill="#abedd8" stroke="#333333" stroke-width="2" stroke-linecap="round" stroke-linejoin="round" opacity="1"></path><path d="M539.38 980.51C545.48 986.47 549.24 994.78 549.24 1003.86 549.24 1021.89 534.58 1036.54 516.55 1036.54 498.52 1036.54 483.87 1021.89 483.87 1003.86 483.87 985.83 498.52 971.17 516.55 971.17 522 971.17 527.06 972.47 531.6 974.8" stroke="#333333" stroke-width="2" stroke-linecap="round" stroke-linejoin="round" opacity="1" fill="none"></path><path d="M473.75 356.86H559.23" stroke="#333333" stroke-width="2" stroke-linecap="round" stroke-linejoin="round" opacity="1" fill="none"></path><path d="M578.94 356.86H596.19" stroke="#333333" stroke-width="2" stroke-linecap="round" stroke-linejoin="round" opacity="1" fill="none"></path></g><g><path d="M1026.24 447.17C1058.59 447.17 1084.81 420.94 1084.81 388.59 1084.81 356.24 1058.59 330.01 1026.24 330.01 993.89 330.01 967.66 356.24 967.66 388.59 967.66 420.94 993.89 447.17 1026.24 447.17Z" fill="#46cdcf" stroke="#333333" stroke-width="2" stroke-linecap="round" stroke-linejoin="round" opacity="1"></path><path d="M932.8 554.65H948.88C991.52 554.65 1026.17 520.14 1026.17 477.36V461.29 447.24" stroke="#333333" stroke-width="2" stroke-linecap="round" stroke-linejoin="round" opacity="1" fill="none"></path><path d="M997.78 390.19L1015.8 408 1054.48 369.25" stroke="#333333" stroke-width="2" stroke-linecap="round" stroke-linejoin="round" opacity="1" fill="none"></path></g><g><path d="M625.8 544.18C626.25 548.32 626.48 552.46 626.48 556.61 626.48 617.33 577.22 666.6 516.49 666.6 455.76 666.6 406.5 617.33 406.5 556.61 406.5 495.88 455.76 446.62 516.49 446.62 566.66 446.62 608.94 480.16 622.22 526.19" fill="#46cdcf" opacity="1" stroke-width="2" stroke="none"></path><path d="M625.8 544.18C626.25 548.32 626.48 552.46 626.48 556.61 626.48 617.33 577.22 666.6 516.49 666.6 455.76 666.6 406.5 617.33 406.5 556.61 406.5 495.88 455.76 446.62 516.49 446.62 566.66 446.62 608.94 480.16 622.22 526.19" stroke="#333333" stroke-width="2" stroke-linecap="round" stroke-linejoin="round" opacity="1" fill="none"></path><path d="M639.36 919.73H393.61V800.99C393.61 765.07 422.79 735.9 458.71 735.9H574.32C610.25 735.9 639.42 765.07 639.42 800.99V919.73H639.36Z" fill="#ffffff" stroke="#333333" stroke-width="2" stroke-linecap="round" stroke-linejoin="round" opacity="1"></path><path d="M516.49 789.53C555.98 789.53 588 757.51 588 718.02 588 678.52 555.98 646.51 516.49 646.51 476.99 646.51 444.98 678.52 444.98 718.02 444.98 757.51 476.99 789.53 516.49 789.53Z" fill="#ffffff" stroke="#333333" stroke-width="2" stroke-linecap="round" stroke-linejoin="round" opacity="1"></path><path d="M465.64 692.88C463.48 697.02 461.95 701.5 461.04 706.21 459.79 712.29 464.27 718.02 470.57 718.02H532.83C529.6 718.02 526.99 720.8 527.21 724.2 527.44 727.1 530.11 729.26 533.06 729.26H552.58L560.08 741.68C561.1 743.39 563.2 744.07 565.01 743.39L567.57 742.37C569.72 741.57 570.58 739.13 569.84 737.09L561.89 718.13H564.67C569.5 718.13 573.3 713.76 572.5 709.05 568.13 682.09 544.81 661.49 516.6 661.49 497.64 661.49 480.79 670.8 470.46 685.16" fill="#78c7e0" opacity="1" stroke-width="2" stroke="none"></path><path d="M465.64 692.88C463.48 697.02 461.95 701.5 461.04 706.21 459.79 712.29 464.27 718.02 470.57 718.02H532.83C529.6 718.02 526.99 720.8 527.21 724.2 527.44 727.1 530.11 729.26 533.06 729.26H552.58L560.08 741.68C561.1 743.39 563.2 744.07 565.01 743.39L567.57 742.37C569.72 741.57 570.58 739.13 569.84 737.09L561.89 718.13H564.67C569.5 718.13 573.3 713.76 572.5 709.05 568.13 682.09 544.81 661.49 516.6 661.49 497.64 661.49 480.79 670.8 470.46 685.16" stroke="#333333" stroke-width="2" stroke-linecap="round" stroke-linejoin="round" opacity="1" fill="none"></path><path d="M546.57 718.02H532.78" stroke="#333333" stroke-width="2" stroke-linecap="round" stroke-linejoin="round" opacity="1" fill="none"></path><path d="M561.72 718.02H558.94" stroke="#333333" stroke-width="2" stroke-linecap="round" stroke-linejoin="round" opacity="1" fill="none"></path><path d="M436.24 913.77V871.77" stroke="#333333" stroke-width="2" stroke-linecap="round" stroke-linejoin="round" opacity="1" fill="none"></path><path d="M607.86 913.77V871.77" stroke="#333333" stroke-width="2" stroke-linecap="round" stroke-linejoin="round" opacity="1" fill="none"></path><path d="M607.86 865.52V856.95" stroke="#333333" stroke-width="2" stroke-linecap="round" stroke-linejoin="round" opacity="1" fill="none"></path><path d="M513.14 913.77H660.13V938.23H372.84V913.77H460.81" fill="#78c7e0" opacity="1" stroke-width="2" stroke="none"></path><path d="M513.14 913.77H660.13V938.23H372.84V913.77H460.81" stroke="#333333" stroke-width="2" stroke-linecap="round" stroke-linejoin="round" opacity="1" fill="none"></path><path d="M473.86 913.77H504.51" stroke="#333333" stroke-width="2" stroke-linecap="round" stroke-linejoin="round" opacity="1" fill="none"></path><path d="M490.66 549.57V535.32H542.31V587.08H490.66V558.25" fill="#ffffff" opacity="1" stroke-width="2" stroke="none"></path><path d="M490.66 549.57V535.32H542.31V587.08H490.66V558.25" stroke="#333333" stroke-width="2" stroke-linecap="round" stroke-linejoin="round" opacity="1" fill="none"></path><path d="M516.49 587.08V685.72" stroke="#333333" stroke-width="2" stroke-linecap="round" stroke-linejoin="round" opacity="1" fill="none"></path><path d="M516.49 695.94C519.34 695.94 521.65 693.63 521.65 690.78 521.65 687.92 519.34 685.61 516.49 685.61 513.63 685.61 511.32 687.92 511.32 690.78 511.32 693.63 513.63 695.94 516.49 695.94Z" stroke="#333333" stroke-width="2" stroke-linecap="round" stroke-linejoin="round" opacity="1" fill="none"></path><path d="M484.65 613.13C487.5 613.13 489.81 610.82 489.81 607.97 489.81 605.12 487.5 602.81 484.65 602.81 481.8 602.81 479.48 605.12 479.48 607.97 479.48 610.82 481.8 613.13 484.65 613.13Z" stroke="#333333" stroke-width="2" stroke-linecap="round" stroke-linejoin="round" opacity="1" fill="none"></path><path d="M568.93 613.02C566.15 613.02 563.76 610.75 563.76 607.86 563.76 605.08 566.03 602.69 568.93 602.69 571.71 602.69 574.09 604.96 574.09 607.86 574.09 609.11 573.64 610.24 572.85 611.09" stroke="#333333" stroke-width="2" stroke-linecap="round" stroke-linejoin="round" opacity="1" fill="none"></path><path d="M591.14 554.82C592.04 552.12 590.58 549.19 587.87 548.29 585.16 547.38 582.24 548.85 581.34 551.56 580.43 554.26 581.9 557.19 584.6 558.09 587.31 558.99 590.23 557.53 591.14 554.82Z" stroke="#333333" stroke-width="2" stroke-linecap="round" stroke-linejoin="round" opacity="1" fill="none"></path><path d="M568.93 518.98C571.78 518.98 574.09 516.67 574.09 513.81 574.09 510.96 571.78 508.65 568.93 508.65 566.08 508.65 563.76 510.96 563.76 513.81 563.76 516.67 566.08 518.98 568.93 518.98Z" stroke="#333333" stroke-width="2" stroke-linecap="round" stroke-linejoin="round" opacity="1" fill="none"></path><path d="M516.49 484.75C519.34 484.75 521.65 482.44 521.65 479.59 521.65 476.74 519.34 474.43 516.49 474.43 513.63 474.43 511.32 476.74 511.32 479.59 511.32 482.44 513.63 484.75 516.49 484.75Z" stroke="#333333" stroke-width="2" stroke-linecap="round" stroke-linejoin="round" opacity="1" fill="none"></path><path d="M487.09 502.46C489.94 502.46 492.25 500.15 492.25 497.3 492.25 494.44 489.94 492.13 487.09 492.13 484.23 492.13 481.92 494.44 481.92 497.3 481.92 500.15 484.23 502.46 487.09 502.46Z" stroke="#333333" stroke-width="2" stroke-linecap="round" stroke-linejoin="round" opacity="1" fill="none"></path><path d="M589.71 588.83C590.62 586.12 589.15 583.2 586.44 582.3 583.74 581.4 580.81 582.86 579.91 585.57 579.01 588.27 580.47 591.2 583.18 592.1 585.89 593 588.81 591.54 589.71 588.83Z" stroke="#333333" stroke-width="2" stroke-linecap="round" stroke-linejoin="round" opacity="1" fill="none"></path><path d="M455.76 596.85C458.61 596.85 460.92 594.54 460.92 591.68 460.92 588.83 458.61 586.52 455.76 586.52 452.9 586.52 450.6 588.83 450.6 591.68 450.6 594.54 452.9 596.85 455.76 596.85Z" stroke="#333333" stroke-width="2" stroke-linecap="round" stroke-linejoin="round" opacity="1" fill="none"></path><path d="M455.76 571.93C458.61 571.93 460.92 569.62 460.92 566.77 460.92 563.91 458.61 561.6 455.76 561.6 452.9 561.6 450.6 563.91 450.6 566.77 450.6 569.62 452.9 571.93 455.76 571.93Z" stroke="#333333" stroke-width="2" stroke-linecap="round" stroke-linejoin="round" opacity="1" fill="none"></path><path d="M455.76 546.9C458.61 546.9 460.92 544.59 460.92 541.74 460.92 538.88 458.61 536.57 455.76 536.57 452.9 536.57 450.6 538.88 450.6 541.74 450.6 544.59 452.9 546.9 455.76 546.9Z" stroke="#333333" stroke-width="2" stroke-linecap="round" stroke-linejoin="round" opacity="1" fill="none"></path><path d="M504.91 587.08L488.11 603.88" stroke="#333333" stroke-width="2" stroke-linecap="round" stroke-linejoin="round" opacity="1" fill="none"></path><path d="M490.66 581.47L480.45 591.68H460.92" stroke="#333333" stroke-width="2" stroke-linecap="round" stroke-linejoin="round" opacity="1" fill="none"></path><path d="M460.92 566.77H490.66" stroke="#333333" stroke-width="2" stroke-linecap="round" stroke-linejoin="round" opacity="1" fill="none"></path><path d="M460.92 541.74H490.66" stroke="#333333" stroke-width="2" stroke-linecap="round" stroke-linejoin="round" opacity="1" fill="none"></path><path d="M530.85 587.08V607.97H563.76" stroke="#333333" stroke-width="2" stroke-linecap="round" stroke-linejoin="round" opacity="1" fill="none"></path><path d="M542.31 565.63H563.08L581.13 583.62" stroke="#333333" stroke-width="2" stroke-linecap="round" stroke-linejoin="round" opacity="1" fill="none"></path><path d="M568.02 553.2H581.13" stroke="#333333" stroke-width="2" stroke-linecap="round" stroke-linejoin="round" opacity="1" fill="none"></path><path d="M542.31 553.2H563.76" stroke="#333333" stroke-width="2" stroke-linecap="round" stroke-linejoin="round" opacity="1" fill="none"></path><path d="M530.85 535.32V513.81H563.76" stroke="#333333" stroke-width="2" stroke-linecap="round" stroke-linejoin="round" opacity="1" fill="none"></path><path d="M502.47 535.32V513.81L490.1 501.44" stroke="#333333" stroke-width="2" stroke-linecap="round" stroke-linejoin="round" opacity="1" fill="none"></path><path d="M516.49 535.32V484.64" stroke="#333333" stroke-width="2" stroke-linecap="round" stroke-linejoin="round" opacity="1" fill="none"></path></g><g><path d="M1261.78 471.58L1136.7 545.45V398.43L1261.78 471.58Z" fill="#abedd8" stroke="#333333" stroke-width="2" stroke-linecap="round" stroke-linejoin="round" opacity="1"></path></g><g><path d="M940.29 326.9C957.05 326.9 970.65 313.3 970.65 296.53 970.65 279.76 957.05 266.17 940.29 266.17 923.51 266.17 909.92 279.76 909.92 296.53 909.92 313.3 923.51 326.9 940.29 326.9Z" fill="#abedd8" stroke="#333333" stroke-width="2" stroke-linecap="round" stroke-linejoin="round" opacity="1"></path><path d="M834.33 326.9C851.09 326.9 864.69 313.3 864.69 296.53 864.69 279.76 851.09 266.17 834.33 266.17 817.55 266.17 803.96 279.76 803.96 296.53 803.96 313.3 817.55 326.9 834.33 326.9Z" fill="#abedd8" stroke="#333333" stroke-width="2" stroke-linecap="round" stroke-linejoin="round" opacity="1"></path><path d="M834.33 296.53V246C834.33 220.94 854.61 200.66 879.66 200.66H895.06C920.11 200.66 940.39 220.94 940.39 246V266.17" stroke="#333333" stroke-width="2" stroke-linecap="round" stroke-linejoin="round" opacity="1" fill="none"></path></g><g><path d="M985.48 684L946.51 706.5 1004.53 807 1043.5 784.5 985.48 684Z" fill="#ffffff" stroke="#333333" stroke-width="2" stroke-linecap="round" stroke-linejoin="round" opacity="1"></path><path d="M833.79 732.4L827.2 745.47V912.5L746.12 993.58 808.75 1056.21 915.58 949.19V1068.48H1004.26V732.4H833.79Z" fill="#48466d" stroke="#333333" stroke-width="2" stroke-linecap="round" stroke-linejoin="round" opacity="1"></path><path d="M827.2 553.81C827.2 531.82 845.14 513.88 867.13 513.88H964.63C986.62 513.88 1004.56 531.82 1004.56 553.81V745.47H827.4V580.06" fill="#ffffff" opacity="1" stroke-width="2" stroke="none"></path><path d="M827.2 553.81C827.2 531.82 845.14 513.88 867.13 513.88H964.63C986.62 513.88 1004.56 531.82 1004.56 553.81V745.47H827.4V580.06" stroke="#333333" stroke-width="2" stroke-linecap="round" stroke-linejoin="round" opacity="1" fill="none"></path><path d="M932.7 471.82C953.48 471.82 970.71 480.84 976.29 499.79 977.5 503.95 978.52 509.42 978.52 513.88 978.52 539.22 958.04 559.69 932.7 559.69 907.37 559.69 886.89 539.22 886.89 513.88 886.89 488.65 907.37 471.82 932.7 471.82Z" fill="#ffffff" stroke="#333333" stroke-width="2" stroke-linecap="round" stroke-linejoin="round" opacity="1"></path><path d="M941.52 469.19C916.79 464.32 892.77 480.33 887.91 505.27 887.1 509.02 886.89 512.87 887.1 516.42 897.84 517.94 907.97 510.74 910.1 500L912.64 487.33 976.29 499.79C971.22 484.59 958.25 472.33 941.52 469.19Z" fill="#48466d" stroke="#333333" stroke-width="2" stroke-linecap="round" stroke-linejoin="round" opacity="1"></path><path d="M953.79 513.98L951.45 524.93" stroke="#333333" stroke-width="2" stroke-linecap="round" stroke-linejoin="round" opacity="1" fill="none"></path><path d="M951.45 524.93C950.85 528.48 947.4 530.81 943.85 530 940.31 529.19 937.97 525.94 938.79 522.4" stroke="#333333" stroke-width="2" stroke-linecap="round" stroke-linejoin="round" opacity="1" fill="none"></path><path d="M910.31 651.31C910.31 663.98 899.97 674.32 887.3 674.32" stroke="#333333" stroke-width="2" stroke-linecap="round" stroke-linejoin="round" opacity="1" fill="none"></path><path d="M1003.65 696.92H965.85L989.46 630.23H1027.27L1003.65 696.92Z" fill="#3d84a8" stroke="#333333" stroke-width="2" stroke-linecap="round" stroke-linejoin="round" opacity="1"></path><path d="M827.2 612.09V674.32C827.2 699.25 847.27 719.32 872.2 719.32H966.56C991.49 719.32 1011.56 699.25 1011.56 674.32H887.5" fill="#ffffff" opacity="1" stroke-width="2" stroke="none"></path><path d="M827.2 612.09V674.32C827.2 699.25 847.27 719.32 872.2 719.32H966.56C991.49 719.32 1011.56 699.25 1011.56 674.32H887.5" stroke="#333333" stroke-width="2" stroke-linecap="round" stroke-linejoin="round" opacity="1" fill="none"></path><path d="M933.31 823.41V807.19" stroke="#333333" stroke-width="2" stroke-linecap="round" stroke-linejoin="round" opacity="1" fill="none"></path><path d="M915.58 949.19L919.12 945.44C928.25 935.5 933.31 922.63 933.31 909.15V834.46" stroke="#333333" stroke-width="2" stroke-linecap="round" stroke-linejoin="round" opacity="1" fill="none"></path></g></svg>